<?xml version="1.0" encoding="utf-8" standalone="no"?>
<!DOCTYPE svg PUBLIC "-//W3C//DTD SVG 1.1//EN"
  "http://www.w3.org/Graphics/SVG/1.1/DTD/svg11.dtd">
<!-- Created with matplotlib (https://matplotlib.org/) -->
<svg height="288pt" version="1.1" viewBox="0 0 432 288" width="432pt" xmlns="http://www.w3.org/2000/svg" xmlns:xlink="http://www.w3.org/1999/xlink">
 <metadata>
  <rdf:RDF xmlns:cc="http://creativecommons.org/ns#" xmlns:dc="http://purl.org/dc/elements/1.1/" xmlns:rdf="http://www.w3.org/1999/02/22-rdf-syntax-ns#">
   <cc:Work>
    <dc:type rdf:resource="http://purl.org/dc/dcmitype/StillImage"/>
    <dc:date>2022-05-07T11:27:28.976710</dc:date>
    <dc:format>image/svg+xml</dc:format>
    <dc:creator>
     <cc:Agent>
      <dc:title>Matplotlib v3.3.4, https://matplotlib.org/</dc:title>
     </cc:Agent>
    </dc:creator>
   </cc:Work>
  </rdf:RDF>
 </metadata>
 <defs>
  <style type="text/css">*{stroke-linecap:butt;stroke-linejoin:round;}</style>
 </defs>
 <g id="figure_1">
  <g id="patch_1">
   <path d="M 0 288 
L 432 288 
L 432 0 
L 0 0 
z
" style="fill:none;"/>
  </g>
  <g id="axes_1">
   <g id="patch_2">
    <path d="M 30.55 260.2 
L 421.2 260.2 
L 421.2 10.8 
L 30.55 10.8 
z
" style="fill:#ffffff;"/>
   </g>
   <g id="matplotlib.axis_1">
    <g id="xtick_1">
     <g id="line2d_1">
      <defs>
       <path d="M 0 0 
L 0 3.5 
" id="m3784d6a75e" style="stroke:#000000;stroke-width:0.8;"/>
      </defs>
      <g>
       <use style="stroke:#000000;stroke-width:0.8;" x="48.306818" xlink:href="#m3784d6a75e" y="260.2"/>
      </g>
     </g>
     <g id="text_1">
      <!-- 0 -->
      <g transform="translate(45.125568 274.798437)scale(0.1 -0.1)">
       <defs>
        <path d="M 31.78125 66.40625 
Q 24.171875 66.40625 20.328125 58.90625 
Q 16.5 51.421875 16.5 36.375 
Q 16.5 21.390625 20.328125 13.890625 
Q 24.171875 6.390625 31.78125 6.390625 
Q 39.453125 6.390625 43.28125 13.890625 
Q 47.125 21.390625 47.125 36.375 
Q 47.125 51.421875 43.28125 58.90625 
Q 39.453125 66.40625 31.78125 66.40625 
z
M 31.78125 74.21875 
Q 44.046875 74.21875 50.515625 64.515625 
Q 56.984375 54.828125 56.984375 36.375 
Q 56.984375 17.96875 50.515625 8.265625 
Q 44.046875 -1.421875 31.78125 -1.421875 
Q 19.53125 -1.421875 13.0625 8.265625 
Q 6.59375 17.96875 6.59375 36.375 
Q 6.59375 54.828125 13.0625 64.515625 
Q 19.53125 74.21875 31.78125 74.21875 
z
" id="DejaVuSans-48"/>
       </defs>
       <use xlink:href="#DejaVuSans-48"/>
      </g>
     </g>
    </g>
    <g id="xtick_2">
     <g id="line2d_2">
      <g>
       <use style="stroke:#000000;stroke-width:0.8;" x="119.405189" xlink:href="#m3784d6a75e" y="260.2"/>
      </g>
     </g>
     <g id="text_2">
      <!-- 200 -->
      <g transform="translate(109.861439 274.798437)scale(0.1 -0.1)">
       <defs>
        <path d="M 19.1875 8.296875 
L 53.609375 8.296875 
L 53.609375 0 
L 7.328125 0 
L 7.328125 8.296875 
Q 12.9375 14.109375 22.625 23.890625 
Q 32.328125 33.6875 34.8125 36.53125 
Q 39.546875 41.84375 41.421875 45.53125 
Q 43.3125 49.21875 43.3125 52.78125 
Q 43.3125 58.59375 39.234375 62.25 
Q 35.15625 65.921875 28.609375 65.921875 
Q 23.96875 65.921875 18.8125 64.3125 
Q 13.671875 62.703125 7.8125 59.421875 
L 7.8125 69.390625 
Q 13.765625 71.78125 18.9375 73 
Q 24.125 74.21875 28.421875 74.21875 
Q 39.75 74.21875 46.484375 68.546875 
Q 53.21875 62.890625 53.21875 53.421875 
Q 53.21875 48.921875 51.53125 44.890625 
Q 49.859375 40.875 45.40625 35.40625 
Q 44.1875 33.984375 37.640625 27.21875 
Q 31.109375 20.453125 19.1875 8.296875 
z
" id="DejaVuSans-50"/>
       </defs>
       <use xlink:href="#DejaVuSans-50"/>
       <use x="63.623047" xlink:href="#DejaVuSans-48"/>
       <use x="127.246094" xlink:href="#DejaVuSans-48"/>
      </g>
     </g>
    </g>
    <g id="xtick_3">
     <g id="line2d_3">
      <g>
       <use style="stroke:#000000;stroke-width:0.8;" x="190.50356" xlink:href="#m3784d6a75e" y="260.2"/>
      </g>
     </g>
     <g id="text_3">
      <!-- 400 -->
      <g transform="translate(180.95981 274.798437)scale(0.1 -0.1)">
       <defs>
        <path d="M 37.796875 64.3125 
L 12.890625 25.390625 
L 37.796875 25.390625 
z
M 35.203125 72.90625 
L 47.609375 72.90625 
L 47.609375 25.390625 
L 58.015625 25.390625 
L 58.015625 17.1875 
L 47.609375 17.1875 
L 47.609375 0 
L 37.796875 0 
L 37.796875 17.1875 
L 4.890625 17.1875 
L 4.890625 26.703125 
z
" id="DejaVuSans-52"/>
       </defs>
       <use xlink:href="#DejaVuSans-52"/>
       <use x="63.623047" xlink:href="#DejaVuSans-48"/>
       <use x="127.246094" xlink:href="#DejaVuSans-48"/>
      </g>
     </g>
    </g>
    <g id="xtick_4">
     <g id="line2d_4">
      <g>
       <use style="stroke:#000000;stroke-width:0.8;" x="261.601931" xlink:href="#m3784d6a75e" y="260.2"/>
      </g>
     </g>
     <g id="text_4">
      <!-- 600 -->
      <g transform="translate(252.058181 274.798437)scale(0.1 -0.1)">
       <defs>
        <path d="M 33.015625 40.375 
Q 26.375 40.375 22.484375 35.828125 
Q 18.609375 31.296875 18.609375 23.390625 
Q 18.609375 15.53125 22.484375 10.953125 
Q 26.375 6.390625 33.015625 6.390625 
Q 39.65625 6.390625 43.53125 10.953125 
Q 47.40625 15.53125 47.40625 23.390625 
Q 47.40625 31.296875 43.53125 35.828125 
Q 39.65625 40.375 33.015625 40.375 
z
M 52.59375 71.296875 
L 52.59375 62.3125 
Q 48.875 64.0625 45.09375 64.984375 
Q 41.3125 65.921875 37.59375 65.921875 
Q 27.828125 65.921875 22.671875 59.328125 
Q 17.53125 52.734375 16.796875 39.40625 
Q 19.671875 43.65625 24.015625 45.921875 
Q 28.375 48.1875 33.59375 48.1875 
Q 44.578125 48.1875 50.953125 41.515625 
Q 57.328125 34.859375 57.328125 23.390625 
Q 57.328125 12.15625 50.6875 5.359375 
Q 44.046875 -1.421875 33.015625 -1.421875 
Q 20.359375 -1.421875 13.671875 8.265625 
Q 6.984375 17.96875 6.984375 36.375 
Q 6.984375 53.65625 15.1875 63.9375 
Q 23.390625 74.21875 37.203125 74.21875 
Q 40.921875 74.21875 44.703125 73.484375 
Q 48.484375 72.75 52.59375 71.296875 
z
" id="DejaVuSans-54"/>
       </defs>
       <use xlink:href="#DejaVuSans-54"/>
       <use x="63.623047" xlink:href="#DejaVuSans-48"/>
       <use x="127.246094" xlink:href="#DejaVuSans-48"/>
      </g>
     </g>
    </g>
    <g id="xtick_5">
     <g id="line2d_5">
      <g>
       <use style="stroke:#000000;stroke-width:0.8;" x="332.700303" xlink:href="#m3784d6a75e" y="260.2"/>
      </g>
     </g>
     <g id="text_5">
      <!-- 800 -->
      <g transform="translate(323.156553 274.798437)scale(0.1 -0.1)">
       <defs>
        <path d="M 31.78125 34.625 
Q 24.75 34.625 20.71875 30.859375 
Q 16.703125 27.09375 16.703125 20.515625 
Q 16.703125 13.921875 20.71875 10.15625 
Q 24.75 6.390625 31.78125 6.390625 
Q 38.8125 6.390625 42.859375 10.171875 
Q 46.921875 13.96875 46.921875 20.515625 
Q 46.921875 27.09375 42.890625 30.859375 
Q 38.875 34.625 31.78125 34.625 
z
M 21.921875 38.8125 
Q 15.578125 40.375 12.03125 44.71875 
Q 8.5 49.078125 8.5 55.328125 
Q 8.5 64.0625 14.71875 69.140625 
Q 20.953125 74.21875 31.78125 74.21875 
Q 42.671875 74.21875 48.875 69.140625 
Q 55.078125 64.0625 55.078125 55.328125 
Q 55.078125 49.078125 51.53125 44.71875 
Q 48 40.375 41.703125 38.8125 
Q 48.828125 37.15625 52.796875 32.3125 
Q 56.78125 27.484375 56.78125 20.515625 
Q 56.78125 9.90625 50.3125 4.234375 
Q 43.84375 -1.421875 31.78125 -1.421875 
Q 19.734375 -1.421875 13.25 4.234375 
Q 6.78125 9.90625 6.78125 20.515625 
Q 6.78125 27.484375 10.78125 32.3125 
Q 14.796875 37.15625 21.921875 38.8125 
z
M 18.3125 54.390625 
Q 18.3125 48.734375 21.84375 45.5625 
Q 25.390625 42.390625 31.78125 42.390625 
Q 38.140625 42.390625 41.71875 45.5625 
Q 45.3125 48.734375 45.3125 54.390625 
Q 45.3125 60.0625 41.71875 63.234375 
Q 38.140625 66.40625 31.78125 66.40625 
Q 25.390625 66.40625 21.84375 63.234375 
Q 18.3125 60.0625 18.3125 54.390625 
z
" id="DejaVuSans-56"/>
       </defs>
       <use xlink:href="#DejaVuSans-56"/>
       <use x="63.623047" xlink:href="#DejaVuSans-48"/>
       <use x="127.246094" xlink:href="#DejaVuSans-48"/>
      </g>
     </g>
    </g>
    <g id="xtick_6">
     <g id="line2d_6">
      <g>
       <use style="stroke:#000000;stroke-width:0.8;" x="403.798674" xlink:href="#m3784d6a75e" y="260.2"/>
      </g>
     </g>
     <g id="text_6">
      <!-- 1000 -->
      <g transform="translate(391.073674 274.798437)scale(0.1 -0.1)">
       <defs>
        <path d="M 12.40625 8.296875 
L 28.515625 8.296875 
L 28.515625 63.921875 
L 10.984375 60.40625 
L 10.984375 69.390625 
L 28.421875 72.90625 
L 38.28125 72.90625 
L 38.28125 8.296875 
L 54.390625 8.296875 
L 54.390625 0 
L 12.40625 0 
z
" id="DejaVuSans-49"/>
       </defs>
       <use xlink:href="#DejaVuSans-49"/>
       <use x="63.623047" xlink:href="#DejaVuSans-48"/>
       <use x="127.246094" xlink:href="#DejaVuSans-48"/>
       <use x="190.869141" xlink:href="#DejaVuSans-48"/>
      </g>
     </g>
    </g>
   </g>
   <g id="matplotlib.axis_2">
    <g id="ytick_1">
     <g id="line2d_7">
      <defs>
       <path d="M 0 0 
L -3.5 0 
" id="mb8323bd6bd" style="stroke:#000000;stroke-width:0.8;"/>
      </defs>
      <g>
       <use style="stroke:#000000;stroke-width:0.8;" x="30.55" xlink:href="#mb8323bd6bd" y="254.01932"/>
      </g>
     </g>
     <g id="text_7">
      <!-- 2 -->
      <g transform="translate(17.1875 257.818539)scale(0.1 -0.1)">
       <use xlink:href="#DejaVuSans-50"/>
      </g>
     </g>
    </g>
    <g id="ytick_2">
     <g id="line2d_8">
      <g>
       <use style="stroke:#000000;stroke-width:0.8;" x="30.55" xlink:href="#mb8323bd6bd" y="223.142609"/>
      </g>
     </g>
     <g id="text_8">
      <!-- 4 -->
      <g transform="translate(17.1875 226.941828)scale(0.1 -0.1)">
       <use xlink:href="#DejaVuSans-52"/>
      </g>
     </g>
    </g>
    <g id="ytick_3">
     <g id="line2d_9">
      <g>
       <use style="stroke:#000000;stroke-width:0.8;" x="30.55" xlink:href="#mb8323bd6bd" y="192.265898"/>
      </g>
     </g>
     <g id="text_9">
      <!-- 6 -->
      <g transform="translate(17.1875 196.065117)scale(0.1 -0.1)">
       <use xlink:href="#DejaVuSans-54"/>
      </g>
     </g>
    </g>
    <g id="ytick_4">
     <g id="line2d_10">
      <g>
       <use style="stroke:#000000;stroke-width:0.8;" x="30.55" xlink:href="#mb8323bd6bd" y="161.389188"/>
      </g>
     </g>
     <g id="text_10">
      <!-- 8 -->
      <g transform="translate(17.1875 165.188406)scale(0.1 -0.1)">
       <use xlink:href="#DejaVuSans-56"/>
      </g>
     </g>
    </g>
    <g id="ytick_5">
     <g id="line2d_11">
      <g>
       <use style="stroke:#000000;stroke-width:0.8;" x="30.55" xlink:href="#mb8323bd6bd" y="130.512477"/>
      </g>
     </g>
     <g id="text_11">
      <!-- 10 -->
      <g transform="translate(10.825 134.311696)scale(0.1 -0.1)">
       <use xlink:href="#DejaVuSans-49"/>
       <use x="63.623047" xlink:href="#DejaVuSans-48"/>
      </g>
     </g>
    </g>
    <g id="ytick_6">
     <g id="line2d_12">
      <g>
       <use style="stroke:#000000;stroke-width:0.8;" x="30.55" xlink:href="#mb8323bd6bd" y="99.635766"/>
      </g>
     </g>
     <g id="text_12">
      <!-- 12 -->
      <g transform="translate(10.825 103.434985)scale(0.1 -0.1)">
       <use xlink:href="#DejaVuSans-49"/>
       <use x="63.623047" xlink:href="#DejaVuSans-50"/>
      </g>
     </g>
    </g>
    <g id="ytick_7">
     <g id="line2d_13">
      <g>
       <use style="stroke:#000000;stroke-width:0.8;" x="30.55" xlink:href="#mb8323bd6bd" y="68.759056"/>
      </g>
     </g>
     <g id="text_13">
      <!-- 14 -->
      <g transform="translate(10.825 72.558274)scale(0.1 -0.1)">
       <use xlink:href="#DejaVuSans-49"/>
       <use x="63.623047" xlink:href="#DejaVuSans-52"/>
      </g>
     </g>
    </g>
    <g id="ytick_8">
     <g id="line2d_14">
      <g>
       <use style="stroke:#000000;stroke-width:0.8;" x="30.55" xlink:href="#mb8323bd6bd" y="37.882345"/>
      </g>
     </g>
     <g id="text_14">
      <!-- 16 -->
      <g transform="translate(10.825 41.681564)scale(0.1 -0.1)">
       <use xlink:href="#DejaVuSans-49"/>
       <use x="63.623047" xlink:href="#DejaVuSans-54"/>
      </g>
     </g>
    </g>
   </g>
   <g id="line2d_15">
    <path clip-path="url(#p76b3170903)" d="M 48.306818 66.799461 
L 50.084277 94.50255 
L 51.150753 109.713963 
L 52.217229 119.957618 
L 52.57272 123.11157 
L 54.35018 132.065918 
L 54.705672 133.93975 
L 55.772147 136.665758 
L 56.483131 137.552122 
L 57.194115 138.663573 
L 57.549606 139.122215 
L 62.171001 147.770969 
L 63.592968 150.222994 
L 65.014935 152.810855 
L 70.347313 162.235011 
L 71.769281 164.583753 
L 73.54674 167.645781 
L 85.988955 187.744194 
L 92.032316 197.100102 
L 92.387808 197.496089 
L 93.454284 199.231044 
L 99.142154 207.183584 
L 100.919613 209.388775 
L 101.275105 209.769251 
L 101.986088 210.669926 
L 103.408056 212.458429 
L 111.228877 221.638042 
L 112.295352 222.768221 
L 112.650844 222.94621 
L 113.361828 223.81587 
L 113.71732 224.083438 
L 114.072811 224.162895 
L 114.428303 224.737956 
L 115.850271 226.039325 
L 119.760681 229.497428 
L 120.116173 229.623565 
L 122.249124 231.386719 
L 124.382075 232.884249 
L 125.093059 233.365122 
L 125.448551 233.506531 
L 126.515026 234.165679 
L 128.292486 235.094299 
L 129.003469 235.431076 
L 130.425437 236.201297 
L 131.491912 236.704174 
L 132.558388 237.250576 
L 133.624863 237.757605 
L 134.691339 238.303543 
L 135.046831 238.35817 
L 135.402323 238.643877 
L 135.757815 238.706954 
L 136.468798 239.063233 
L 138.957241 240.077714 
L 139.668225 240.382241 
L 140.023717 240.428434 
L 141.801176 241.166072 
L 143.578635 241.762198 
L 143.934127 241.756964 
L 144.645111 242.050905 
L 145.000603 241.853467 
L 145.356095 242.159091 
L 147.133554 242.534506 
L 148.555521 242.748753 
L 148.911013 242.686533 
L 149.621997 242.955894 
L 152.821424 243.117661 
L 153.176916 243.252256 
L 153.532407 243.204722 
L 154.598883 243.342178 
L 157.79831 243.376152 
L 158.509293 243.525489 
L 159.931261 243.500625 
L 160.286753 243.574185 
L 160.642245 243.513975 
L 161.353228 243.649583 
L 162.419704 243.606676 
L 163.130688 243.702634 
L 163.841671 243.707419 
L 165.974622 243.711692 
L 166.330114 243.655807 
L 167.041098 243.76054 
L 167.752082 243.70898 
L 168.463065 243.743785 
L 169.174049 243.759716 
L 170.596016 243.777395 
L 171.662492 243.819422 
L 180.90528 243.91898 
L 181.260772 243.977913 
L 181.616264 243.8456 
L 182.327248 243.928395 
L 183.393723 243.994281 
L 192.636512 244.09536 
L 192.992003 244.141097 
L 193.347495 244.032433 
L 194.058479 244.128586 
L 199.390857 244.189536 
L 199.746349 244.07156 
L 200.457332 244.168493 
L 201.168316 244.261904 
L 201.8793 244.213609 
L 202.590283 244.253221 
L 203.301267 244.208275 
L 204.012251 244.255025 
L 204.723235 244.195919 
L 205.078726 244.274511 
L 205.78971 244.287331 
L 208.278153 244.314606 
L 209.344629 244.267477 
L 209.700121 244.30893 
L 210.411104 244.252496 
L 210.766596 244.37316 
L 211.122088 244.216947 
L 211.833072 244.36822 
L 215.032498 244.388818 
L 215.38799 244.334817 
L 216.098974 244.428438 
L 216.454466 244.42136 
L 216.809958 244.183213 
L 217.16545 244.400416 
L 217.876433 244.455672 
L 218.587417 244.39798 
L 218.942909 244.266704 
L 219.653893 244.443923 
L 220.364876 244.435255 
L 233.162583 244.591913 
L 233.873567 244.549786 
L 234.58455 244.596415 
L 238.139469 244.617034 
L 239.205945 244.667377 
L 239.916928 244.629759 
L 240.983404 244.682523 
L 244.538322 244.702826 
L 259.824472 244.836159 
L 260.179964 244.723678 
L 260.535456 244.853827 
L 262.668407 244.902682 
L 263.023899 244.749642 
L 263.734883 244.881061 
L 268.711769 244.90043 
L 269.778244 244.916839 
L 270.489228 244.965959 
L 270.84472 244.859477 
L 271.200212 244.974207 
L 271.555703 244.852487 
L 272.266687 244.962646 
L 284.35341 245.081024 
L 285.064394 245.079559 
L 285.775378 245.106108 
L 286.841853 245.073876 
L 287.552837 245.084182 
L 288.619312 245.105093 
L 289.330296 245.040325 
L 290.04128 245.094761 
L 291.463247 245.175432 
L 293.240707 245.103212 
L 293.95169 245.185753 
L 295.018166 245.134863 
L 295.72915 245.183641 
L 296.440133 245.198736 
L 296.795625 245.221174 
L 297.151117 245.019485 
L 297.506609 245.191889 
L 298.928576 245.239342 
L 304.971938 245.263186 
L 305.32743 245.117729 
L 305.682922 245.297499 
L 306.038413 245.190159 
L 306.393905 245.305629 
L 307.104889 245.188437 
L 308.526856 245.300171 
L 309.23784 245.290851 
L 312.437267 245.358559 
L 317.769645 245.358662 
L 321.324563 245.415784 
L 322.035547 245.38657 
L 322.746531 245.415924 
L 326.301449 245.26446 
L 326.656941 245.447141 
L 327.367925 245.395941 
L 327.723417 245.48876 
L 328.4344 245.402099 
L 330.21186 245.471497 
L 330.922843 245.423146 
L 336.610713 245.446589 
L 336.966205 245.308438 
L 337.321697 245.518096 
L 339.099156 245.491219 
L 339.454648 245.427655 
L 339.81014 245.578534 
L 340.876615 245.533872 
L 341.943091 245.550939 
L 342.654075 245.519999 
L 343.009566 245.591969 
L 343.72055 245.558967 
L 346.919977 245.612825 
L 347.275469 245.530286 
L 349.052928 245.615615 
L 353.31883 245.629694 
L 357.229241 245.664698 
L 357.584732 245.610653 
L 358.295716 245.648513 
L 361.495143 245.652268 
L 362.206127 245.66059 
L 362.91711 245.699135 
L 363.628094 245.62577 
L 364.339078 245.656125 
L 365.050061 245.686889 
L 368.249488 245.721964 
L 370.737931 245.699382 
L 371.804407 245.728681 
L 372.159899 245.573274 
L 372.51539 245.72076 
L 372.870882 245.663962 
L 373.937358 245.765467 
L 382.469162 245.768997 
L 383.535638 245.802341 
L 385.668589 245.697836 
L 386.024081 245.830017 
L 387.80154 245.781018 
L 388.157032 245.637335 
L 388.512524 245.830716 
L 389.578999 245.840246 
L 395.977853 245.826653 
L 396.688837 245.866391 
L 398.466296 245.867708 
L 398.821788 245.636466 
L 399.17728 245.825136 
L 399.888263 245.841737 
L 400.243755 245.786661 
L 400.954739 245.879071 
L 402.732198 245.924934 
L 403.443182 245.93492 
L 403.443182 245.93492 
" style="fill:none;stroke:#ffa500;stroke-linecap:square;stroke-width:1.5;"/>
   </g>
   <g id="line2d_16">
    <path clip-path="url(#p76b3170903)" d="M 48.306818 180.762647 
L 48.66231 175.549779 
L 50.439769 139.774127 
L 51.861737 101.839426 
L 52.928212 76.045784 
L 53.994688 54.063013 
L 55.061163 36.882318 
L 55.772147 28.444562 
L 56.483131 23.566189 
L 56.838623 22.453824 
L 57.194115 22.136364 
L 57.549606 22.367665 
L 58.26059 25.438946 
L 58.971574 29.553245 
L 59.682558 34.95008 
L 60.749033 43.499452 
L 61.460017 48.306079 
L 62.171001 52.20146 
L 63.237476 56.380306 
L 63.592968 57.356893 
L 64.303952 60.214438 
L 66.792395 66.671812 
L 67.147887 67.784014 
L 68.214362 72.723532 
L 68.569854 74.297114 
L 68.925346 74.967754 
L 69.280838 75.927425 
L 69.63633 76.500524 
L 69.991821 76.770341 
L 70.702805 78.280628 
L 71.058297 78.544394 
L 71.413789 79.651281 
L 71.769281 81.40721 
L 73.54674 86.805413 
L 73.902232 87.843264 
L 74.257724 88.48671 
L 76.035183 93.601169 
L 76.390675 93.98852 
L 76.746167 93.712623 
L 77.45715 95.661396 
L 78.168134 98.067175 
L 79.23461 101.118035 
L 79.590101 102.257476 
L 79.945593 103.83172 
L 80.656577 105.445026 
L 81.012069 106.98314 
L 81.367561 107.62158 
L 83.14502 114.65856 
L 83.856004 117.146171 
L 85.277971 125.135033 
L 86.699939 130.797311 
L 87.05543 132.355258 
L 88.121906 135.400582 
L 88.83289 136.77387 
L 89.188382 137.116257 
L 89.899365 139.601174 
L 90.254857 140.515099 
L 90.965841 143.602164 
L 92.387808 151.483753 
L 92.7433 152.380335 
L 93.098792 153.761264 
L 93.454284 154.680034 
L 94.165268 157.705747 
L 94.520759 158.698692 
L 95.942727 166.23129 
L 96.298219 167.472173 
L 97.364694 171.984211 
L 97.720186 172.649971 
L 98.075678 172.443361 
L 99.142154 174.499988 
L 100.919613 179.881341 
L 101.275105 181.541451 
L 101.986088 183.505418 
L 103.052564 187.605885 
L 103.408056 188.545046 
L 103.763548 189.799776 
L 104.474531 192.863696 
L 106.251991 197.53643 
L 107.318466 200.497067 
L 107.673958 202.081993 
L 108.02945 202.974857 
L 110.162401 212.075252 
L 111.228877 215.383789 
L 111.584368 215.571561 
L 111.93986 215.559555 
L 112.295352 216.131181 
L 112.650844 216.370315 
L 114.072811 223.27761 
L 114.783795 223.615933 
L 115.494779 224.246467 
L 115.850271 224.88098 
L 117.62773 231.596359 
L 118.694206 232.802966 
L 119.049697 233.019246 
L 119.760681 234.199303 
L 120.116173 234.36626 
L 120.471665 234.981449 
L 120.827157 235.374377 
L 121.53814 235.77911 
L 122.249124 236.418537 
L 122.960108 236.815127 
L 124.382075 238.376651 
L 125.448551 239.861258 
L 126.159535 240.110028 
L 126.870518 240.084273 
L 127.581502 240.396342 
L 127.936994 240.704004 
L 129.358961 243.058503 
L 129.714453 243.405403 
L 130.069945 243.442498 
L 130.780929 243.955486 
L 132.202896 245.507613 
L 132.91388 246.157026 
L 133.269372 246.153452 
L 133.980355 246.710492 
L 134.335847 246.998296 
L 135.046831 246.896957 
L 135.402323 247.229071 
L 136.113306 247.109353 
L 136.82429 247.462562 
L 137.535274 246.931552 
L 138.246258 246.172684 
L 138.957241 246.14044 
L 139.312733 246.392313 
L 140.023717 246.394183 
L 141.090192 245.09966 
L 142.867652 244.079599 
L 143.223144 244.316104 
L 143.578635 244.297785 
L 143.934127 244.067562 
L 145.000603 244.668496 
L 145.711587 244.236087 
L 146.067078 244.094425 
L 146.42257 244.178325 
L 147.489046 243.287706 
L 147.844538 243.215213 
L 148.20003 243.441309 
L 148.911013 244.154469 
L 149.266505 243.87767 
L 149.977489 243.004668 
L 150.332981 242.88559 
L 150.688473 243.302333 
L 151.043964 243.497467 
L 151.399456 244.100395 
L 152.11044 244.49996 
L 152.821424 243.674833 
L 153.532407 243.403331 
L 154.243391 243.75199 
L 154.954375 244.056645 
L 155.309867 244.146942 
L 155.665359 244.414915 
L 156.02085 244.321592 
L 156.731834 243.39365 
L 157.087326 243.233878 
L 157.442818 243.227543 
L 158.153802 244.055931 
L 159.220277 244.464797 
L 159.575769 244.442156 
L 160.286753 243.842887 
L 160.642245 243.574046 
L 160.997736 243.875532 
L 161.70872 244.134788 
L 162.419704 243.719411 
L 162.775196 243.939202 
L 163.130688 243.994046 
L 163.486179 243.802048 
L 164.552655 244.252209 
L 164.908147 244.056741 
L 165.263639 244.120433 
L 165.61913 243.992931 
L 165.974622 244.058036 
L 166.330114 244.450608 
L 167.041098 244.322932 
L 167.39659 244.135878 
L 167.752082 244.174438 
L 168.463065 244.939531 
L 168.818557 245.055873 
L 169.174049 244.900297 
L 169.885033 244.270621 
L 170.240525 244.045934 
L 170.596016 244.136794 
L 171.307 244.597559 
L 171.662492 244.538159 
L 172.017984 244.648325 
L 172.373476 245.042961 
L 172.728968 245.121914 
L 173.439951 244.702951 
L 173.795443 244.620185 
L 174.150935 244.963021 
L 174.861919 245.023946 
L 176.639378 244.787039 
L 177.350362 245.97493 
L 177.705854 246.040164 
L 178.061345 245.657866 
L 178.772329 244.698866 
L 179.127821 244.766324 
L 179.838805 245.464183 
L 180.194297 245.736565 
L 180.90528 245.848686 
L 181.260772 245.513119 
L 181.616264 244.905402 
L 181.971756 244.901961 
L 182.327248 245.033071 
L 183.038231 245.799212 
L 183.393723 245.910439 
L 184.104707 245.598293 
L 184.460199 245.444844 
L 185.171183 245.438834 
L 185.882166 245.619789 
L 186.237658 245.911708 
L 186.59315 245.898461 
L 186.948642 246.034352 
L 187.659626 245.929306 
L 188.370609 246.043245 
L 188.726101 245.914498 
L 189.081593 245.909761 
L 189.437085 246.059838 
L 189.792577 245.978927 
L 190.148069 245.695145 
L 190.859052 246.005646 
L 191.570036 246.022066 
L 192.28102 245.827308 
L 192.992003 246.498839 
L 193.347495 246.710462 
L 193.702987 246.404901 
L 194.058479 245.942822 
L 194.413971 245.896691 
L 194.769463 246.08034 
L 195.124954 246.600281 
L 195.835938 246.678277 
L 196.19143 246.25015 
L 197.257906 246.154887 
L 197.613397 246.243311 
L 198.324381 247.024647 
L 199.035365 246.978913 
L 199.390857 246.67993 
L 199.746349 246.102712 
L 200.10184 246.194507 
L 201.523808 247.03065 
L 201.8793 246.918592 
L 202.590283 246.242122 
L 202.945775 246.170472 
L 203.301267 246.418557 
L 204.367743 247.459834 
L 205.434218 246.635602 
L 205.78971 246.743597 
L 206.500694 247.154347 
L 206.856186 247.167171 
L 208.278153 246.753303 
L 208.633645 246.844859 
L 208.989137 247.298656 
L 209.344629 247.382298 
L 209.700121 247.65831 
L 210.055612 247.678867 
L 210.411104 247.174477 
L 211.122088 246.922233 
L 211.47758 247.305771 
L 211.833072 247.424992 
L 212.544055 247.137198 
L 213.610531 247.531555 
L 214.321515 247.258204 
L 215.032498 247.081975 
L 215.38799 247.098624 
L 216.098974 247.74723 
L 216.454466 247.952479 
L 216.809958 247.752505 
L 217.16545 247.974343 
L 217.520941 247.881197 
L 217.876433 247.357258 
L 218.587417 246.802125 
L 218.942909 247.060134 
L 219.298401 247.150663 
L 219.653893 247.464634 
L 220.009384 247.953598 
L 220.364876 248.112321 
L 221.07586 247.552656 
L 221.786844 247.60658 
L 222.497827 247.353261 
L 223.208811 247.981505 
L 223.564303 248.132433 
L 223.919795 247.886486 
L 224.275287 247.482637 
L 224.630779 247.308981 
L 225.697254 247.997502 
L 226.052746 248.132142 
L 226.408238 248.052276 
L 226.76373 248.23333 
L 227.830205 247.788293 
L 228.185697 247.563445 
L 228.541189 247.521576 
L 229.607664 248.221187 
L 230.318648 248.102868 
L 230.67414 247.787984 
L 231.029632 247.914935 
L 231.740616 247.710975 
L 232.096107 248.025517 
L 233.162583 248.097561 
L 233.518075 248.259125 
L 233.873567 247.998868 
L 234.229059 247.935069 
L 234.58455 248.011522 
L 234.940042 247.823555 
L 235.651026 248.073315 
L 237.072993 247.548078 
L 237.783977 248.316299 
L 239.561436 247.829897 
L 239.916928 248.052662 
L 242.049879 248.081376 
L 242.405371 248.248823 
L 243.471847 247.951952 
L 244.182831 248.314356 
L 244.538322 248.253063 
L 244.893814 247.998146 
L 245.249306 247.961331 
L 245.604798 248.188693 
L 245.96029 248.043575 
L 246.671274 248.031951 
L 247.382257 248.512047 
L 248.448733 248.193611 
L 249.159717 248.058276 
L 249.515208 248.035735 
L 249.8707 248.180861 
L 250.226192 248.201054 
L 250.581684 248.336264 
L 251.292668 248.051838 
L 251.64816 248.033872 
L 252.359143 248.283606 
L 253.070127 247.983898 
L 253.425619 248.160105 
L 253.781111 248.629137 
L 254.136603 248.696068 
L 255.203078 248.077997 
L 255.914062 248.414635 
L 256.269554 248.24046 
L 256.625046 248.271474 
L 256.980537 248.107878 
L 258.047013 248.362931 
L 258.402505 248.598167 
L 258.757997 248.589664 
L 259.46898 247.944473 
L 259.824472 247.995478 
L 260.179964 248.448844 
L 260.890948 248.2882 
L 261.24644 247.981778 
L 261.957423 247.963009 
L 262.668407 248.429237 
L 263.023899 248.807917 
L 263.379391 248.62497 
L 264.090374 247.875616 
L 264.445866 247.884174 
L 265.512342 248.289418 
L 265.867834 248.14455 
L 266.223326 248.293721 
L 266.578817 248.07884 
L 266.934309 248.050881 
L 267.289801 247.910503 
L 267.645293 248.181976 
L 268.000785 248.293717 
L 268.711769 248.038904 
L 269.06726 248.182447 
L 269.422752 247.834848 
L 269.778244 248.000149 
L 270.133736 248.327805 
L 270.489228 248.30289 
L 270.84472 248.065328 
L 271.555703 248.576542 
L 272.266687 247.925841 
L 272.977671 247.823909 
L 273.688655 248.686675 
L 274.044146 248.763688 
L 274.399638 248.717811 
L 275.110622 248.106733 
L 276.177098 248.166001 
L 276.888081 248.59545 
L 277.599065 248.580576 
L 277.954557 248.077821 
L 278.310049 247.964927 
L 278.665541 247.983821 
L 279.376524 248.522913 
L 279.732016 248.815035 
L 280.443 247.964563 
L 281.153984 247.914202 
L 281.864967 248.328464 
L 282.220459 248.169634 
L 283.286935 248.332064 
L 283.642427 248.021199 
L 284.35341 248.121306 
L 285.064394 248.648295 
L 286.841853 247.802597 
L 287.197345 247.946295 
L 287.552837 248.565757 
L 287.908329 248.761874 
L 288.619312 248.449021 
L 288.974804 247.790575 
L 289.330296 247.601552 
L 290.04128 248.477636 
L 290.752264 248.348672 
L 291.107755 248.213531 
L 291.818739 248.4334 
L 292.174231 248.302838 
L 292.529723 248.001879 
L 292.885215 247.878384 
L 293.240707 248.378873 
L 293.95169 248.443242 
L 294.307182 248.122384 
L 294.662674 248.25176 
L 295.018166 248.013907 
L 295.373658 248.113348 
L 295.72915 248.541777 
L 296.795625 248.348131 
L 297.151117 248.053575 
L 297.506609 248.419332 
L 297.862101 248.458422 
L 298.217593 248.169598 
L 298.928576 248.203185 
L 299.63956 248.152802 
L 299.995052 248.43139 
L 300.706036 248.221055 
L 301.061527 247.918921 
L 301.417019 247.822676 
L 301.772511 248.287434 
L 302.128003 248.460833 
L 302.838987 248.33481 
L 303.194479 248.005213 
L 303.54997 247.959424 
L 304.971938 248.60562 
L 305.32743 248.154874 
L 306.038413 247.938219 
L 306.749397 248.863636 
L 307.815873 247.98374 
L 308.171365 247.919966 
L 309.23784 248.542896 
L 310.304316 247.725308 
L 310.659808 247.796531 
L 311.370791 248.369571 
L 312.792759 248.118755 
L 313.148251 247.993067 
L 313.859234 248.516968 
L 314.214726 248.113782 
L 314.570218 247.978701 
L 314.92571 248.154576 
L 315.281202 248.182083 
L 315.636694 248.345948 
L 316.703169 248.043258 
L 317.058661 248.224817 
L 317.414153 248.012811 
L 317.769645 248.483216 
L 318.480628 248.242109 
L 318.83612 248.069616 
L 319.191612 248.268798 
L 319.902596 248.304182 
L 320.613579 248.530087 
L 321.324563 247.70845 
L 322.035547 247.937159 
L 322.391039 248.317035 
L 322.746531 248.448329 
L 323.457514 247.848445 
L 323.813006 248.054488 
L 324.52399 248.718381 
L 324.879482 248.465323 
L 325.234974 247.696601 
L 325.590465 247.33743 
L 325.945957 247.404004 
L 326.301449 248.230077 
L 326.656941 248.687231 
L 327.012433 248.635597 
L 327.723417 247.658619 
L 328.078908 247.555108 
L 328.4344 247.687267 
L 329.145384 248.443448 
L 330.21186 247.928914 
L 330.567351 247.578058 
L 330.922843 247.724943 
L 331.278335 248.239367 
L 331.633827 248.542469 
L 331.989319 248.405212 
L 332.344811 247.751717 
L 333.055794 247.58716 
L 333.411286 247.800175 
L 333.766778 248.510634 
L 334.12227 248.705775 
L 334.477762 248.40491 
L 334.833254 247.925848 
L 335.544237 247.95768 
L 335.899729 248.056995 
L 336.255221 248.298138 
L 336.610713 248.399275 
L 336.966205 247.820644 
L 338.03268 248.135966 
L 338.388172 248.247568 
L 338.743664 248.112317 
L 339.099156 247.842537 
L 339.454648 247.851886 
L 339.81014 248.359305 
L 340.165632 248.652849 
L 341.232107 247.854021 
L 341.587599 248.004705 
L 341.943091 248.36539 
L 342.298583 248.426057 
L 343.009566 247.710025 
L 343.365058 247.739611 
L 344.076042 248.070787 
L 344.787026 248.123525 
L 345.142518 247.863341 
L 345.498009 247.834944 
L 345.853501 248.009991 
L 346.208993 247.951316 
L 346.564485 248.006859 
L 347.275469 248.320219 
L 347.630961 247.936511 
L 347.986452 247.738577 
L 349.052928 248.021571 
L 349.40842 247.891374 
L 349.763912 247.617037 
L 351.185879 247.942927 
L 351.541371 247.814571 
L 352.607846 247.814453 
L 352.963338 248.05257 
L 353.31883 247.965295 
L 353.674322 247.651055 
L 354.029814 247.705159 
L 354.740798 248.159704 
L 355.096289 248.157922 
L 355.807273 247.6986 
L 356.518257 247.83897 
L 357.229241 247.636763 
L 357.584732 247.855711 
L 358.295716 247.582405 
L 358.651208 247.731477 
L 359.362192 248.380058 
L 359.717684 248.406961 
L 360.073175 248.090442 
L 360.428667 247.480215 
L 360.784159 247.329372 
L 361.139651 247.459702 
L 361.495143 247.852089 
L 362.206127 248.06475 
L 362.561618 247.991344 
L 363.272602 247.428695 
L 363.628094 247.39948 
L 363.983586 247.767409 
L 364.339078 247.753451 
L 364.69457 247.939879 
L 365.050061 247.957956 
L 365.761045 247.442332 
L 366.827521 248.096184 
L 367.893996 247.480539 
L 368.60498 247.973912 
L 369.315964 247.490249 
L 370.026947 247.802924 
L 370.382439 247.542082 
L 370.737931 247.72265 
L 371.804407 247.821903 
L 372.159899 247.410206 
L 372.51539 247.60333 
L 372.870882 248.033316 
L 373.226374 248.018332 
L 373.581866 247.871704 
L 373.937358 247.548335 
L 374.648342 247.33012 
L 375.359325 247.990369 
L 375.714817 247.881178 
L 376.070309 247.563095 
L 376.425801 247.668241 
L 377.136785 247.488872 
L 377.847768 247.830652 
L 378.20326 247.857065 
L 378.914244 247.51021 
L 379.269736 247.629585 
L 379.625228 247.896855 
L 380.691703 247.721586 
L 381.047195 247.082605 
L 381.402687 247.083705 
L 382.11367 247.869672 
L 383.535638 247.238876 
L 383.89113 247.303673 
L 384.246622 247.560438 
L 384.602113 248.009774 
L 384.957605 248.181652 
L 385.313097 247.973054 
L 385.668589 247.461211 
L 386.024081 247.407228 
L 386.735065 247.707242 
L 387.090556 247.900539 
L 387.80154 247.85955 
L 388.157032 247.378489 
L 388.512524 247.469161 
L 388.868016 247.353452 
L 389.223508 247.684528 
L 389.578999 247.685415 
L 389.934491 247.523582 
L 390.289983 247.641168 
L 390.645475 247.354052 
L 391.000967 247.414807 
L 391.356459 247.656926 
L 391.711951 247.74278 
L 392.067442 247.576784 
L 392.422934 247.103427 
L 392.778426 247.194902 
L 393.133918 247.574395 
L 393.48941 247.781896 
L 394.200394 247.798349 
L 395.622361 247.204984 
L 395.977853 247.526372 
L 396.333345 247.694404 
L 397.755312 247.288681 
L 398.466296 248.033647 
L 398.821788 248.269936 
L 399.532771 247.150011 
L 399.888263 246.974069 
L 400.243755 247.339741 
L 400.599247 247.510489 
L 400.954739 247.484676 
L 401.310231 247.250254 
L 401.665723 247.415554 
L 403.08769 247.417575 
L 403.443182 247.331327 
L 403.443182 247.331327 
" style="fill:none;stroke:#008000;stroke-linecap:square;stroke-width:1.5;"/>
   </g>
   <g id="patch_3">
    <path d="M 30.55 260.2 
L 30.55 10.8 
" style="fill:none;stroke:#000000;stroke-linecap:square;stroke-linejoin:miter;stroke-width:0.8;"/>
   </g>
   <g id="patch_4">
    <path d="M 421.2 260.2 
L 421.2 10.8 
" style="fill:none;stroke:#000000;stroke-linecap:square;stroke-linejoin:miter;stroke-width:0.8;"/>
   </g>
   <g id="patch_5">
    <path d="M 30.55 260.2 
L 421.2 260.2 
" style="fill:none;stroke:#000000;stroke-linecap:square;stroke-linejoin:miter;stroke-width:0.8;"/>
   </g>
   <g id="patch_6">
    <path d="M 30.55 10.8 
L 421.2 10.8 
" style="fill:none;stroke:#000000;stroke-linecap:square;stroke-linejoin:miter;stroke-width:0.8;"/>
   </g>
  </g>
  <g id="legend_1">
   <g id="patch_7">
    <path d="M 348.34375 160.178125 
L 425 160.178125 
Q 427 160.178125 427 158.178125 
L 427 129.821875 
Q 427 127.821875 425 127.821875 
L 348.34375 127.821875 
Q 346.34375 127.821875 346.34375 129.821875 
L 346.34375 158.178125 
Q 346.34375 160.178125 348.34375 160.178125 
z
" style="fill:#ffffff;opacity:0.8;stroke:#cccccc;stroke-linejoin:miter;"/>
   </g>
   <g id="line2d_17">
    <path d="M 350.34375 135.920312 
L 370.34375 135.920312 
" style="fill:none;stroke:#ffa500;stroke-linecap:square;stroke-width:1.5;"/>
   </g>
   <g id="line2d_18"/>
   <g id="text_15">
    <!-- Val MAE -->
    <g transform="translate(378.34375 139.420312)scale(0.1 -0.1)">
     <defs>
      <path d="M 28.609375 0 
L 0.78125 72.90625 
L 11.078125 72.90625 
L 34.1875 11.53125 
L 57.328125 72.90625 
L 67.578125 72.90625 
L 39.796875 0 
z
" id="DejaVuSans-86"/>
      <path d="M 34.28125 27.484375 
Q 23.390625 27.484375 19.1875 25 
Q 14.984375 22.515625 14.984375 16.5 
Q 14.984375 11.71875 18.140625 8.90625 
Q 21.296875 6.109375 26.703125 6.109375 
Q 34.1875 6.109375 38.703125 11.40625 
Q 43.21875 16.703125 43.21875 25.484375 
L 43.21875 27.484375 
z
M 52.203125 31.203125 
L 52.203125 0 
L 43.21875 0 
L 43.21875 8.296875 
Q 40.140625 3.328125 35.546875 0.953125 
Q 30.953125 -1.421875 24.3125 -1.421875 
Q 15.921875 -1.421875 10.953125 3.296875 
Q 6 8.015625 6 15.921875 
Q 6 25.140625 12.171875 29.828125 
Q 18.359375 34.515625 30.609375 34.515625 
L 43.21875 34.515625 
L 43.21875 35.40625 
Q 43.21875 41.609375 39.140625 45 
Q 35.0625 48.390625 27.6875 48.390625 
Q 23 48.390625 18.546875 47.265625 
Q 14.109375 46.140625 10.015625 43.890625 
L 10.015625 52.203125 
Q 14.9375 54.109375 19.578125 55.046875 
Q 24.21875 56 28.609375 56 
Q 40.484375 56 46.34375 49.84375 
Q 52.203125 43.703125 52.203125 31.203125 
z
" id="DejaVuSans-97"/>
      <path d="M 9.421875 75.984375 
L 18.40625 75.984375 
L 18.40625 0 
L 9.421875 0 
z
" id="DejaVuSans-108"/>
      <path id="DejaVuSans-32"/>
      <path d="M 9.8125 72.90625 
L 24.515625 72.90625 
L 43.109375 23.296875 
L 61.8125 72.90625 
L 76.515625 72.90625 
L 76.515625 0 
L 66.890625 0 
L 66.890625 64.015625 
L 48.09375 14.015625 
L 38.1875 14.015625 
L 19.390625 64.015625 
L 19.390625 0 
L 9.8125 0 
z
" id="DejaVuSans-77"/>
      <path d="M 34.1875 63.1875 
L 20.796875 26.90625 
L 47.609375 26.90625 
z
M 28.609375 72.90625 
L 39.796875 72.90625 
L 67.578125 0 
L 57.328125 0 
L 50.6875 18.703125 
L 17.828125 18.703125 
L 11.1875 0 
L 0.78125 0 
z
" id="DejaVuSans-65"/>
      <path d="M 9.8125 72.90625 
L 55.90625 72.90625 
L 55.90625 64.59375 
L 19.671875 64.59375 
L 19.671875 43.015625 
L 54.390625 43.015625 
L 54.390625 34.71875 
L 19.671875 34.71875 
L 19.671875 8.296875 
L 56.78125 8.296875 
L 56.78125 0 
L 9.8125 0 
z
" id="DejaVuSans-69"/>
     </defs>
     <use xlink:href="#DejaVuSans-86"/>
     <use x="60.658203" xlink:href="#DejaVuSans-97"/>
     <use x="121.9375" xlink:href="#DejaVuSans-108"/>
     <use x="149.720703" xlink:href="#DejaVuSans-32"/>
     <use x="181.507812" xlink:href="#DejaVuSans-77"/>
     <use x="267.787109" xlink:href="#DejaVuSans-65"/>
     <use x="336.195312" xlink:href="#DejaVuSans-69"/>
    </g>
   </g>
   <g id="line2d_19">
    <path d="M 350.34375 150.598437 
L 370.34375 150.598437 
" style="fill:none;stroke:#008000;stroke-linecap:square;stroke-width:1.5;"/>
   </g>
   <g id="line2d_20"/>
   <g id="text_16">
    <!-- Test MAE -->
    <g transform="translate(378.34375 154.098437)scale(0.1 -0.1)">
     <defs>
      <path d="M -0.296875 72.90625 
L 61.375 72.90625 
L 61.375 64.59375 
L 35.5 64.59375 
L 35.5 0 
L 25.59375 0 
L 25.59375 64.59375 
L -0.296875 64.59375 
z
" id="DejaVuSans-84"/>
      <path d="M 56.203125 29.59375 
L 56.203125 25.203125 
L 14.890625 25.203125 
Q 15.484375 15.921875 20.484375 11.0625 
Q 25.484375 6.203125 34.421875 6.203125 
Q 39.59375 6.203125 44.453125 7.46875 
Q 49.3125 8.734375 54.109375 11.28125 
L 54.109375 2.78125 
Q 49.265625 0.734375 44.1875 -0.34375 
Q 39.109375 -1.421875 33.890625 -1.421875 
Q 20.796875 -1.421875 13.15625 6.1875 
Q 5.515625 13.8125 5.515625 26.8125 
Q 5.515625 40.234375 12.765625 48.109375 
Q 20.015625 56 32.328125 56 
Q 43.359375 56 49.78125 48.890625 
Q 56.203125 41.796875 56.203125 29.59375 
z
M 47.21875 32.234375 
Q 47.125 39.59375 43.09375 43.984375 
Q 39.0625 48.390625 32.421875 48.390625 
Q 24.90625 48.390625 20.390625 44.140625 
Q 15.875 39.890625 15.1875 32.171875 
z
" id="DejaVuSans-101"/>
      <path d="M 44.28125 53.078125 
L 44.28125 44.578125 
Q 40.484375 46.53125 36.375 47.5 
Q 32.28125 48.484375 27.875 48.484375 
Q 21.1875 48.484375 17.84375 46.4375 
Q 14.5 44.390625 14.5 40.28125 
Q 14.5 37.15625 16.890625 35.375 
Q 19.28125 33.59375 26.515625 31.984375 
L 29.59375 31.296875 
Q 39.15625 29.25 43.1875 25.515625 
Q 47.21875 21.78125 47.21875 15.09375 
Q 47.21875 7.46875 41.1875 3.015625 
Q 35.15625 -1.421875 24.609375 -1.421875 
Q 20.21875 -1.421875 15.453125 -0.5625 
Q 10.6875 0.296875 5.421875 2 
L 5.421875 11.28125 
Q 10.40625 8.6875 15.234375 7.390625 
Q 20.0625 6.109375 24.8125 6.109375 
Q 31.15625 6.109375 34.5625 8.28125 
Q 37.984375 10.453125 37.984375 14.40625 
Q 37.984375 18.0625 35.515625 20.015625 
Q 33.0625 21.96875 24.703125 23.78125 
L 21.578125 24.515625 
Q 13.234375 26.265625 9.515625 29.90625 
Q 5.8125 33.546875 5.8125 39.890625 
Q 5.8125 47.609375 11.28125 51.796875 
Q 16.75 56 26.8125 56 
Q 31.78125 56 36.171875 55.265625 
Q 40.578125 54.546875 44.28125 53.078125 
z
" id="DejaVuSans-115"/>
      <path d="M 18.3125 70.21875 
L 18.3125 54.6875 
L 36.8125 54.6875 
L 36.8125 47.703125 
L 18.3125 47.703125 
L 18.3125 18.015625 
Q 18.3125 11.328125 20.140625 9.421875 
Q 21.96875 7.515625 27.59375 7.515625 
L 36.8125 7.515625 
L 36.8125 0 
L 27.59375 0 
Q 17.1875 0 13.234375 3.875 
Q 9.28125 7.765625 9.28125 18.015625 
L 9.28125 47.703125 
L 2.6875 47.703125 
L 2.6875 54.6875 
L 9.28125 54.6875 
L 9.28125 70.21875 
z
" id="DejaVuSans-116"/>
     </defs>
     <use xlink:href="#DejaVuSans-84"/>
     <use x="44.083984" xlink:href="#DejaVuSans-101"/>
     <use x="105.607422" xlink:href="#DejaVuSans-115"/>
     <use x="157.707031" xlink:href="#DejaVuSans-116"/>
     <use x="196.916016" xlink:href="#DejaVuSans-32"/>
     <use x="228.703125" xlink:href="#DejaVuSans-77"/>
     <use x="314.982422" xlink:href="#DejaVuSans-65"/>
     <use x="383.390625" xlink:href="#DejaVuSans-69"/>
    </g>
   </g>
  </g>
 </g>
 <defs>
  <clipPath id="p76b3170903">
   <rect height="249.4" width="390.65" x="30.55" y="10.8"/>
  </clipPath>
 </defs>
</svg>
